<svg width="1728" height="346" viewBox="0 0 1728 346" fill="none" xmlns="http://www.w3.org/2000/svg">
<g clip-path="url(#clip0_48_238)">
<path d="M1650.92 346C1586.83 346 1534.83 315.964 1534.83 278.864C1534.83 315.964 1482.9 346 1418.75 346C1354.6 346 1302.73 315.964 1302.73 278.864C1302.73 315.964 1250.74 346 1186.65 346C1122.56 346 1070.56 315.964 1070.56 278.864C1070.56 315.964 1018.63 346 954.482 346C899.464 346 853.399 323.85 841.541 294.088C829.625 323.85 783.5 346 728.483 346C664.394 346 612.4 315.964 612.4 278.864C612.4 315.964 560.465 346 496.377 346C432.288 346 380.294 315.964 380.294 278.864C380.294 315.964 328.3 346 264.212 346C200.123 346 148.129 315.964 148.129 278.864C148.129 315.964 96.1945 346 32.1061 346C-31.9824 346 -83.9171 315.964 -83.9171 278.864L-87 0H1763.98L1767.06 278.864C1767.06 315.964 1715.07 346 1650.98 346H1650.92Z" fill="white"/>
</g>
<defs>
<clipPath id="clip0_48_238">
<rect width="1854" height="346" fill="white" transform="matrix(1 0 0 -1 -87 346)"/>
</clipPath>
</defs>
</svg>
