<?xml version="1.0" encoding="UTF-8"?>
<svg id="Layer_2" data-name="Layer 2" xmlns="http://www.w3.org/2000/svg" viewBox="0 0 675 246">
  <defs>
    <style>
      .cls-1 {
        fill: #fff;
        stroke: #3b1a00;
        stroke-miterlimit: 10;
        stroke-width: .5px;
      }
    </style>
  </defs>
  <g id="Layer_1-2" data-name="Layer 1-2">
    <path class="cls-1" d="M675,54.33c0-7.3-3.92-13.66-9.76-17.16.29-.17.58-.36.87-.54.54-.36,1.07-.75,1.58-1.17.5-.41,1-.86,1.46-1.32s.9-.95,1.32-1.46c.41-.5.8-1.03,1.16-1.58.36-.54.7-1.11,1.01-1.68.3-.57.58-1.17.83-1.77s.47-1.22.66-1.84c.19-.63.35-1.26.48-1.9s.23-1.3.29-1.94c.07-.66.1-1.32.1-1.97s-.03-1.31-.1-1.97c-.06-.64-.16-1.3-.29-1.94-.13-.63-.29-1.27-.48-1.9-.19-.62-.41-1.24-.66-1.84s-.53-1.2-.83-1.77c-.31-.57-.65-1.14-1.01-1.68-.36-.55-.75-1.08-1.16-1.58-.42-.51-.86-1-1.32-1.46s-.96-.91-1.46-1.32c-.51-.41-1.04-.81-1.58-1.17-.55-.36-1.11-.7-1.69-1-.57-.31-1.17-.59-1.77-.84-.6-.25-1.22-.47-1.84-.66s-1.26-.35-1.9-.48c-.64-.13-1.29-.22-1.94-.29-1.3-.13-2.63-.13-3.93,0-.65.07-1.3.16-1.94.29-.64.13-1.28.29-1.9.48s-1.24.41-1.84.66c-.61.25-1.2.53-1.77.84-.58.3-1.15.64-1.69,1s-1.07.76-1.58,1.17c-.5.41-1,.86-1.46,1.32s-.9.95-1.32,1.46c-.41.5-.8,1.03-1.16,1.58-.36.54-.7,1.11-1.01,1.68-.3.57-.58,1.17-.83,1.77-.08.18-.13.38-.2.57C633.48,5.37,626.21,0,617.65,0s-15.79,5.33-18.68,12.83C596.09,5.33,588.82,0,580.3,0s-15.8,5.33-18.68,12.83C558.74,5.33,551.46,0,542.94,0s-15.79,5.33-18.67,12.83C521.39,5.33,514.11,0,505.59,0s-15.79,5.33-18.67,12.83C484.03,5.33,476.76,0,468.24,0s-15.79,5.33-18.68,12.83C446.68,5.33,439.41,0,430.89,0s-15.8,5.33-18.68,12.83C409.33,5.33,402.05,0,393.53,0s-15.79,5.33-18.67,12.83C371.97,5.33,364.7,0,356.18,0s-15.79,5.33-18.68,12.83C334.62,5.33,327.35,0,318.83,0s-15.8,5.33-18.68,12.83C297.27,5.33,289.99,0,281.47,0s-15.79,5.33-18.67,12.83C259.92,5.33,252.64,0,244.12,0s-15.79,5.33-18.68,12.83C222.56,5.33,215.29,0,206.77,0s-15.8,5.33-18.68,12.83C185.21,5.33,177.93,0,169.42,0s-15.8,5.33-18.68,12.83C147.86,5.33,140.58,0,132.06,0s-15.79,5.33-18.67,12.83C110.5,5.33,103.23,0,94.71,0s-15.79,5.33-18.68,12.83C73.15,5.33,65.88,0,57.36,0s-15.83,5.37-18.69,12.92c-.07-.19-.13-.38-.2-.57-.25-.6-.53-1.2-.83-1.77-.31-.57-.65-1.14-1.01-1.68-.36-.55-.75-1.08-1.16-1.58-.42-.51-.86-1-1.32-1.46-.47-.46-.96-.91-1.47-1.32-.5-.41-1.03-.81-1.57-1.17-.55-.36-1.11-.7-1.69-1-.57-.31-1.17-.59-1.77-.84s-1.22-.47-1.84-.66-1.26-.35-1.9-.48c-.64-.13-1.29-.22-1.94-.29-1.3-.13-2.63-.13-3.93,0-.65.07-1.3.16-1.94.29-.64.13-1.28.29-1.9.48s-1.24.41-1.85.66c-.6.25-1.19.53-1.77.84-.57.3-1.14.64-1.68,1s-1.07.76-1.58,1.17c-.5.41-1,.86-1.46,1.32s-.9.95-1.32,1.46c-.41.5-.8,1.03-1.16,1.58-.36.54-.7,1.11-1.01,1.68-.3.57-.58,1.17-.83,1.77s-.48,1.22-.66,1.84c-.19.63-.36,1.27-.48,1.9-.13.64-.23,1.3-.3,1.94C.04,18.69,0,19.35,0,20s.04,1.31.1,1.97c.07.64.17,1.3.3,1.94.12.64.29,1.27.48,1.9.18.62.41,1.24.66,1.84s.53,1.2.83,1.77c.31.57.65,1.14,1.01,1.68.36.55.75,1.08,1.16,1.58.42.51.86,1,1.32,1.46s.96.91,1.46,1.32c.51.42,1.04.81,1.58,1.17.28.19.57.37.86.54C3.93,40.67,0,47.03,0,54.33s3.91,13.68,9.74,17.17c-5.83,3.5-9.74,9.88-9.74,17.17s3.91,13.67,9.74,17.16c-5.83,3.5-9.74,9.88-9.74,17.17s3.91,13.67,9.74,17.17c-5.83,3.49-9.74,9.87-9.74,17.17s3.91,13.67,9.74,17.16c-5.83,3.5-9.74,9.88-9.74,17.17s3.93,13.66,9.77,17.16c-.29.17-.58.36-.86.54-.54.36-1.07.76-1.58,1.17s-1,.86-1.46,1.32-.9.95-1.32,1.46c-.41.5-.8,1.03-1.17,1.58-.35.54-.69,1.11-1,1.68-.3.57-.59,1.17-.83,1.77-.25.6-.48,1.22-.66,1.84-.2.63-.36,1.27-.48,1.9-.13.64-.23,1.3-.3,1.94-.06.66-.1,1.32-.1,1.97s.04,1.31.1,1.97c.07.64.17,1.3.3,1.94.12.64.28,1.27.48,1.9.18.62.41,1.24.66,1.84.24.6.53,1.2.83,1.77.31.57.65,1.14,1,1.68.37.55.76,1.08,1.17,1.58.42.51.86,1,1.32,1.46s.95.91,1.46,1.32,1.04.81,1.58,1.17,1.11.7,1.68,1c.58.31,1.17.59,1.77.84.61.25,1.23.47,1.85.66.62.19,1.26.35,1.9.48.64.13,1.29.23,1.94.29.65.07,1.31.1,1.96.1s1.32-.03,1.97-.1c.65-.06,1.3-.16,1.94-.29.64-.13,1.28-.29,1.9-.48.62-.19,1.24-.41,1.84-.66s1.2-.53,1.77-.84c.58-.3,1.14-.64,1.69-1,.54-.36,1.07-.76,1.58-1.17.5-.41.99-.86,1.46-1.32.46-.46.9-.95,1.32-1.46.41-.5.8-1.03,1.16-1.58.36-.54.7-1.11,1.01-1.68.3-.57.58-1.17.83-1.77.08-.19.13-.38.2-.57,2.86,7.55,10.13,12.92,18.69,12.92s15.79-5.33,18.67-12.83c2.89,7.5,10.16,12.83,18.68,12.83s15.79-5.33,18.68-12.83c2.88,7.5,10.15,12.83,18.67,12.83s15.8-5.33,18.68-12.83c2.88,7.5,10.16,12.83,18.68,12.83s15.79-5.33,18.67-12.83c2.88,7.5,10.16,12.83,18.68,12.83s15.79-5.33,18.68-12.83c2.88,7.5,10.15,12.83,18.67,12.83s15.8-5.33,18.68-12.83c2.88,7.5,10.16,12.83,18.68,12.83s15.79-5.33,18.67-12.83c2.88,7.5,10.16,12.83,18.68,12.83s15.79-5.33,18.67-12.83c2.89,7.5,10.16,12.83,18.68,12.83s15.79-5.33,18.68-12.83c2.88,7.5,10.15,12.83,18.67,12.83s15.8-5.33,18.68-12.83c2.88,7.5,10.16,12.83,18.68,12.83s15.79-5.33,18.67-12.83c2.89,7.5,10.16,12.83,18.68,12.83s15.79-5.33,18.68-12.83c2.88,7.5,10.15,12.83,18.67,12.83s15.8-5.33,18.68-12.83c2.88,7.5,10.16,12.83,18.68,12.83s15.79-5.33,18.67-12.83c2.88,7.5,10.16,12.83,18.68,12.83s15.79-5.33,18.67-12.83c2.89,7.5,10.16,12.83,18.68,12.83s15.83-5.37,18.69-12.92c.07.19.13.38.2.57.25.6.53,1.2.83,1.77.31.57.65,1.14,1.01,1.68.36.55.75,1.08,1.16,1.58.42.51.86,1,1.32,1.46s.96.91,1.46,1.32c.51.41,1.04.81,1.58,1.17.54.36,1.11.7,1.68,1,.58.31,1.17.59,1.77.84.61.25,1.23.47,1.85.66s1.26.35,1.9.48,1.29.23,1.94.29c.65.07,1.31.1,1.96.1s1.32-.03,1.97-.1c.65-.06,1.3-.16,1.94-.29s1.28-.29,1.9-.48,1.24-.41,1.84-.66c.6-.25,1.2-.53,1.77-.84.58-.3,1.14-.64,1.69-1,.54-.36,1.07-.76,1.58-1.17.5-.41,1-.86,1.46-1.32s.9-.95,1.32-1.46c.41-.5.8-1.03,1.16-1.58.36-.54.7-1.11,1.01-1.68.3-.57.58-1.17.83-1.77s.47-1.22.66-1.84c.19-.63.35-1.26.48-1.9s.23-1.3.3-1.94c.06-.66.09-1.32.09-1.97s-.03-1.31-.09-1.97c-.07-.64-.17-1.3-.3-1.94-.13-.63-.29-1.27-.48-1.9-.19-.62-.41-1.24-.66-1.84-.25-.6-.53-1.2-.83-1.77-.31-.57-.65-1.14-1.01-1.68-.36-.55-.75-1.08-1.16-1.58-.42-.51-.86-1-1.32-1.46s-.96-.91-1.46-1.32c-.51-.41-1.04-.81-1.58-1.17-.29-.19-.58-.37-.87-.54,5.84-3.49,9.76-9.86,9.76-17.16s-3.9-13.67-9.73-17.17c5.83-3.49,9.73-9.87,9.73-17.16s-3.9-13.68-9.73-17.17c5.83-3.5,9.73-9.88,9.73-17.17s-3.9-13.67-9.73-17.17c5.83-3.49,9.73-9.87,9.73-17.16s-3.9-13.67-9.73-17.17c5.83-3.49,9.73-9.87,9.73-17.17h-.01Z"/>
  </g>
</svg>