<?xml version="1.0" encoding="UTF-8"?>
<svg id="Layer_1" data-name="Layer 1" xmlns="http://www.w3.org/2000/svg" viewBox="0 0 1264.79 809.81">
  <defs>
    <style>
      .cls-1 {
        fill: #f7f6f5;
      }
    </style>
  </defs>
  <path class="cls-1" d="M1148.48,340.2v64.71c0,35.74-28.97,64.71-64.71,64.71s-61.98-26.32-64.52-59.73c-.11-1.37-.17-2.75-.18-4.14-.45,35.35-29.25,63.87-64.7,63.87s-64.48-28.74-64.7-64.29c-.23,35.55-29.11,64.29-64.71,64.29s-64.47-28.74-64.69-64.29c-.23,35.55-29.11,64.29-64.71,64.29s-64.25-28.52-64.7-63.87c-.45,35.35-29.24,63.87-64.7,63.87s-64.48-28.74-64.7-64.29c-.23,35.55-29.11,64.29-64.7,64.29s-64.48-28.74-64.7-64.29c-.23,35.55-29.11,64.29-64.71,64.29s-64.25-28.52-64.7-63.87c-.03,2.51-.2,4.97-.51,7.4-4.05,31.85-31.24,56.47-64.19,56.47-35.74,0-64.71-28.97-64.71-64.71v-64.71h1035.24Z"/>
</svg>