<?xml version="1.0" encoding="UTF-8"?>
<svg id="Layer_1" data-name="Layer 1" xmlns="http://www.w3.org/2000/svg" viewBox="0 0 1505.12 563.08">
  <defs>
    <style>
      .cls-1 {
        fill: none;
      }

      .cls-2 {
        fill: #ecbe1d;
      }
    </style>
  </defs>
  <path class="cls-1" d="M81.32,298.1c48.05-16.78,114.63-33.69,186.55-28.77,88.34,6.05,119.88,40.6,193.85,40.56,77.18-.04,81.34-47.74,162.58-55.65,79.35-7.73,125.81,29.31,225.78,45.98,75.62,12.6,190.45,14.98,365.01-27.25"/>
  <g>
    <line class="cls-2" x1="56.37" y1="306.04" x2="106.27" y2="290.16"/>
    <rect x="55.13" y="295.1" width="52.36" height="6" transform="translate(-86.53 38.67) rotate(-17.64)"/>
  </g>
  <g>
    <line class="cls-2" x1="135.56" y1="280.52" x2="187.26" y2="272.21"/>
    <rect x="135.23" y="273.36" width="52.36" height="6" transform="translate(-41.81 29.12) rotate(-9.13)"/>
  </g>
  <g>
    <line class="cls-2" x1="217.84" y1="267.62" x2="270.18" y2="269.32"/>
    <rect x="241.01" y="242.29" width="6" height="52.36" transform="translate(-32.25 503.62) rotate(-88.14)"/>
  </g>
  <g>
    <line class="cls-2" x1="301.13" y1="271.46" x2="351.54" y2="285.64"/>
    <rect x="323.34" y="252.37" width="6" height="52.36" transform="translate(-30.18 517.26) rotate(-74.29)"/>
  </g>
  <g>
    <line class="cls-2" x1="380.62" y1="295.61" x2="430.99" y2="309.94"/>
    <rect x="402.8" y="276.59" width="6" height="52.36" transform="translate(3.56 610.27) rotate(-74.12)"/>
  </g>
  <g>
    <line class="cls-2" x1="462.31" y1="311.57" x2="514.1" y2="303.82"/>
    <rect x="462.03" y="304.69" width="52.36" height="6" transform="translate(-40.19 75.71) rotate(-8.52)"/>
  </g>
  <g>
    <line class="cls-2" x1="539.31" y1="284.11" x2="586.16" y2="260.72"/>
    <rect x="536.55" y="269.42" width="52.36" height="6" transform="translate(-62.42 280.1) rotate(-26.54)"/>
  </g>
  <g>
    <line class="cls-2" x1="616.58" y1="252.82" x2="668.94" y2="253.6"/>
    <rect x="639.76" y="227.03" width="6" height="52.36" transform="translate(380.03 892.14) rotate(-89.15)"/>
  </g>
  <g>
    <line class="cls-2" x1="699.54" y1="258.4" x2="749.29" y2="274.73"/>
    <rect x="721.41" y="240.38" width="6" height="52.36" transform="translate(245.26 871.75) rotate(-71.83)"/>
  </g>
  <g>
    <line class="cls-2" x1="778.8" y1="283.24" x2="829.14" y2="297.65"/>
    <rect x="800.97" y="264.26" width="6" height="52.36" transform="translate(303.39 983.37) rotate(-74.02)"/>
  </g>
  <g>
    <line class="cls-2" x1="859.75" y1="301.6" x2="911.68" y2="308.35"/>
    <rect x="882.72" y="278.79" width="6" height="52.36" transform="translate(469.14 1144) rotate(-82.6)"/>
  </g>
  <g>
    <line class="cls-2" x1="942.56" y1="307.9" x2="994.92" y2="308.34"/>
    <rect x="965.74" y="281.94" width="6" height="52.36" transform="translate(652.61 1274.27) rotate(-89.53)"/>
  </g>
  <g>
    <line class="cls-2" x1="1025.53" y1="304.7" x2="1077.72" y2="300.36"/>
    <rect x="1025.44" y="299.53" width="52.36" height="6" transform="translate(-21.45 88.17) rotate(-4.75)"/>
  </g>
  <g>
    <line class="cls-2" x1="1107.94" y1="294.32" x2="1159.69" y2="286.32"/>
    <rect x="1107.63" y="287.32" width="52.36" height="6" transform="translate(-31.03 176.5) rotate(-8.78)"/>
  </g>
  <g>
    <line class="cls-2" x1="1189.47" y1="278.41" x2="1240.69" y2="267.53"/>
    <rect x="1188.9" y="269.97" width="52.36" height="6" transform="translate(-30.2 258.5) rotate(-12)"/>
  </g>
</svg>