<svg width="294" height="283" viewBox="0 0 294 283" fill="none" xmlns="http://www.w3.org/2000/svg">
<path d="M147.198 0.5L147.748 0.506836C158.952 0.751707 168.42 8.02136 171.937 18.083C178.948 9.79159 190.689 6.42232 201.394 10.543C201.517 10.5903 201.64 10.6386 201.764 10.6865C212.483 14.8458 218.914 25.2764 218.499 36.1582C228.11 30.9982 240.328 32.2201 248.766 40.0625C248.863 40.1532 248.961 40.2444 249.058 40.335C257.512 48.2369 259.574 60.4179 255.028 70.3994C265.98 69.2881 276.884 75.2018 281.624 85.8057C281.679 85.9285 281.734 86.0522 281.789 86.1758C286.518 96.8395 283.571 108.962 275.339 116.354C285.863 119.758 293.483 129.632 293.5 141.297V141.703C293.483 153.368 285.863 163.241 275.339 166.645C283.571 174.037 286.518 186.16 281.789 196.824C281.734 196.948 281.679 197.071 281.624 197.194C276.884 207.798 265.981 213.711 255.029 212.6C259.575 222.581 257.513 234.763 249.058 242.665C248.961 242.756 248.863 242.847 248.766 242.938C240.327 250.78 228.11 252 218.499 246.84C218.915 257.722 212.483 268.154 201.764 272.313C201.64 272.361 201.517 272.41 201.394 272.457C190.689 276.578 178.948 273.208 171.937 264.916C168.363 275.142 158.642 282.485 147.198 282.5H146.802C135.358 282.485 125.636 275.143 122.062 264.916C115.051 273.208 103.311 276.578 92.6064 272.457C92.4835 272.41 92.3598 272.361 92.2363 272.313C81.5168 268.154 75.0833 257.722 75.499 246.84C65.8887 252 53.6722 250.78 45.2344 242.938C45.1368 242.847 45.0393 242.756 44.9424 242.665C36.4874 234.763 34.4238 222.581 38.9697 212.6C28.0188 213.71 17.1154 207.798 12.376 197.194C12.3207 197.071 12.2653 196.947 12.2109 196.824C7.4823 186.16 10.4281 174.037 18.6602 166.645C8.1365 163.241 0.517164 153.367 0.5 141.703V141.297L0.506836 140.736C0.762752 129.317 8.30533 119.703 18.6602 116.354C10.4285 108.962 7.48239 96.8393 12.2109 86.1758C12.2654 86.0529 12.3208 85.9291 12.376 85.8057C17.1156 75.2021 28.0195 69.2885 38.9707 70.3994C34.4251 60.4179 36.4875 48.2368 44.9424 40.335C45.0393 40.2443 45.1368 40.1532 45.2344 40.0625C53.672 32.2204 65.8887 30.9997 75.499 36.1592C75.0838 25.277 81.5171 14.8458 92.2363 10.6865C92.3597 10.6386 92.4834 10.5903 92.6064 10.543C103.311 6.42248 115.051 9.79191 122.062 18.083C125.636 7.85702 135.358 0.514672 146.802 0.5H147.198Z" fill="white" stroke="#514242" stroke-linecap="round" stroke-linejoin="bevel"/>
<ellipse cx="146.5" cy="144" rx="121.5" ry="116" stroke="#514242" stroke-width="4" stroke-linecap="round" stroke-dasharray="1 36"/>
</svg>
