<?xml version="1.0" encoding="iso-8859-1"?>
<!-- Uploaded to: SVG Repo, www.svgrepo.com, Generator: SVG Repo Mixer Tools -->
<svg height="800px" width="800px" version="1.1" id="Layer_1" xmlns="http://www.w3.org/2000/svg" xmlns:xlink="http://www.w3.org/1999/xlink" 
	 viewBox="0 0 512 512" xml:space="preserve">
<path style="fill:#F4DE3B;" d="M432.714,215.329L321.63,309.264c-12.174,10.299-2.015,29.952,13.421,25.98l24.162-6.21
	c21.762-5.592,36.616,21.529,20.19,36.849l-60.884,56.818c-8.481,7.91-18.314,14.073-28.916,18.256
	c-10.613,4.182-21.995,6.384-33.599,6.384c-23.207,0-45.552-8.807-62.515-24.64l-60.895-56.818
	c-16.427-15.32-1.561-42.441,20.19-36.849l24.174,6.21c15.436,3.973,25.584-15.681,13.421-25.98L79.284,215.329
	c-31.374-26.539,2.179-75.703,38.317-56.165l32.702,17.673c13.479,7.281,26.958-9.635,16.846-21.145l-56.771-64.612
	c-20.959-23.859,8.842-58.227,35.428-40.857l38.737,20.434c14.598,7.689,32.143-2.889,32.143-19.397V39.319
	c0-10.858,4.404-20.691,11.522-27.809C235.314,4.404,245.147,0,256.005,0c21.716,0,39.319,17.603,39.319,39.319v11.941
	c0,16.508,17.545,27.087,32.143,19.397l38.725-20.434c26.586-17.37,56.387,16.998,35.428,40.857l-56.771,64.612
	c-10.112,11.51,3.379,28.426,16.858,21.145l32.69-17.673C430.547,139.627,464.088,188.79,432.714,215.329z"/>
<path style="fill:#E0C734;" d="M256.005,0v447.342c-23.207,0-45.552-8.807-62.515-24.64l-60.895-56.818
	c-16.427-15.32-1.561-42.441,20.19-36.849l24.174,6.21c15.436,3.973,25.584-15.681,13.421-25.98L79.284,215.329
	c-31.374-26.539,2.179-75.703,38.317-56.165l32.702,17.673c13.479,7.281,26.958-9.635,16.846-21.145l-56.771-64.612
	c-20.959-23.859,8.842-58.227,35.428-40.857l38.737,20.434c14.598,7.689,32.143-2.889,32.143-19.397V39.319
	c0-10.858,4.404-20.691,11.522-27.809C235.314,4.404,245.147,0,256.005,0z"/>
<path style="fill:#B27214;" d="M299.463,254.561c2.583-1.919,3.121-5.568,1.202-8.15c-1.918-2.582-5.566-3.121-8.149-1.202
	l-27.777,20.635v-106.06l34.724-25.796c2.583-1.918,3.121-5.568,1.202-8.149c-1.918-2.582-5.566-3.121-8.149-1.202l-27.777,20.635
	V73.395c0-4.825-3.911-8.738-8.738-8.738s-8.738,3.912-8.738,8.738v71.877l-27.779-20.635c-2.582-1.919-6.23-1.379-8.149,1.202
	c-1.918,2.583-1.381,6.232,1.202,8.149l34.726,25.796v106.06l-27.779-20.636c-2.582-1.919-6.23-1.379-8.149,1.202
	c-1.918,2.582-1.381,6.232,1.202,8.149l34.726,25.796v105.44l-27.779-20.635c-2.582-1.919-6.23-1.379-8.149,1.202
	c-1.918,2.583-1.381,6.232,1.202,8.149l34.726,25.796v102.955c0,4.825,3.911,8.738,8.738,8.738c4.827,0,8.738-3.912,8.738-8.738
	V400.308l34.724-25.796c2.583-1.918,3.121-5.568,1.202-8.149c-1.918-2.583-5.566-3.121-8.149-1.202l-27.777,20.635V280.357
	L299.463,254.561z"/>
</svg>