<?xml version="1.0" encoding="iso-8859-1"?>
<!-- Uploaded to: SVG Repo, www.svgrepo.com, Generator: SVG Repo Mixer Tools -->
<svg height="800px" width="800px" version="1.1" id="Layer_1" xmlns="http://www.w3.org/2000/svg" xmlns:xlink="http://www.w3.org/1999/xlink" 
	 viewBox="0 0 511.999 511.999" xml:space="preserve">
<path style="fill:#F7B239;" d="M361.027,358.582L256.005,463.603L150.972,358.582c-70.014-70.014-70.014-183.534,0-253.549
	L256.006,0l105.021,105.034C431.041,175.048,431.041,288.568,361.027,358.582z"/>
<path style="fill:#E09B2D;" d="M256.006,0v463.603L150.972,358.582c-70.014-70.014-70.014-183.534,0-253.549L256.006,0z"/>
<path style="fill:#B27214;" d="M359.264,246.095c-1.302-3.104-4.872-4.568-7.981-3.264l-86.136,36.116v-58.907l62.954-26.395
	c3.106-1.302,4.568-4.875,3.265-7.979c-1.301-3.106-4.874-4.566-7.979-3.265l-58.24,24.418v-59.883l30.408-12.749
	c3.106-1.302,4.568-4.875,3.265-7.979c-1.302-3.106-4.875-4.568-7.979-3.265l-25.694,10.773V95.42c0-5.05-4.095-9.145-9.145-9.145
	s-9.145,4.095-9.145,9.145v38.291l-25.693-10.772c-3.104-1.302-6.678,0.16-7.979,3.264c-1.302,3.106,0.16,6.678,3.264,7.981
	l30.408,12.749v59.883l-58.239-24.42c-3.103-1.301-6.677,0.161-7.979,3.265c-1.301,3.106,0.16,6.678,3.265,7.979l62.954,26.396
	v58.907l-86.137-36.114c-3.106-1.302-6.678,0.16-7.979,3.264c-1.302,3.106,0.16,6.678,3.264,7.979l90.851,38.093v57.149
	l-40.289-19.597c-3.026-1.473-6.677-0.212-8.149,2.815c-1.473,3.028-0.212,6.677,2.815,8.149l45.624,22.192v139.978
	c0,5.05,4.095,9.145,9.145,9.145c5.05,0,9.145-4.095,9.145-9.145V362.877l45.624-22.192c3.028-1.473,4.288-5.121,2.815-8.149
	c-1.473-3.029-5.121-4.29-8.149-2.815l-40.29,19.597v-57.149L356,254.075C359.104,252.773,360.565,249.2,359.264,246.095z"/>
</svg>