<?xml version="1.0" encoding="iso-8859-1"?>
<!-- Uploaded to: SVG Repo, www.svgrepo.com, Generator: SVG Repo Mixer Tools -->
<svg height="800px" width="800px" version="1.1" id="Layer_1" xmlns="http://www.w3.org/2000/svg" xmlns:xlink="http://www.w3.org/1999/xlink" 
	 viewBox="0 0 512 512" xml:space="preserve">
<path style="fill:#E6E6E6;" d="M352.336,236.231v252.803c0,12.682-10.298,22.966-22.98,22.966c-6.341,0-12.083-2.571-16.239-6.727
	c-4.156-4.156-6.727-9.898-6.727-16.239V236.231H352.336z"/>
<path style="fill:#CCCCCC;" d="M329.357,234.318v-20.289l-22.966-5.076v280.08c0,6.341,2.571,12.083,6.727,16.239
	c4.156,4.156,9.898,6.727,16.239,6.727V297.51c0-11.996,7.167-22.832,18.208-27.525l4.772-2.029v-33.524L329.357,234.318z"/>
<path style="fill:#E6E6E6;" d="M264.926,217.421v211.972c0,16.251-13.196,29.43-29.447,29.43c-8.126,0-15.484-3.294-20.81-8.62
	c-5.326-5.326-8.62-12.683-8.62-20.81V205.148l29.43,6.504l2.117,0.461C246.678,214.109,255.776,215.885,264.926,217.421z"/>
<path style="fill:#CCCCCC;" d="M264.926,217.421c-9.151-1.536-18.249-3.312-27.33-5.309l-2.117-0.461l-29.43-6.504v2.032v20.758
	v201.456c0,8.126,3.294,15.484,8.62,20.81c5.326,5.326,12.683,8.62,20.81,8.62V237.499c0-10.688,10.276-18.354,20.525-15.322
	c2.959,0.875,5.932,1.712,8.923,2.51V217.421L264.926,217.421z"/>
<path style="fill:#F95428;" d="M407.674,145.165c-0.04,0.027-0.093,0.04-0.133,0.067c-49.743,25.617-105.92,40.458-165.48,41.483
	c-2.185,0.04-4.369,0.053-6.568,0.053c-19.13,0-37.913-1.425-56.27-4.183c-41.177-6.168-80.169-19.01-115.844-37.38
	c-7.633-3.93-11.15-12.975-8.099-20.995C82.921,51.594,153.166,0,235.493,0c70.271,0,131.763,37.607,165.44,93.797
	c5.768,9.631,10.724,19.796,14.76,30.413C418.744,132.203,415.267,141.248,407.674,145.165z"/>
<path style="fill:#E54728;" d="M236.528,0.013C172.305,17.438,119.965,75.24,97.012,151.333c-0.866,2.864-1.199,5.822-1.052,8.712
	c-11.137-4.436-22.007-9.392-32.584-14.84c-7.633-3.93-11.15-12.975-8.099-20.995C82.917,51.594,153.162,0,235.489,0
	C235.835,0,236.182,0,236.528,0.013z"/>
<path style="fill:#CE301B;" d="M407.674,145.165c-0.04,0.027-0.093,0.04-0.133,0.067c-49.743,25.617-105.92,40.458-165.48,41.483
	c-21.328-0.306-42.296-2.051-62.838-5.142c27.949-59.041,88.069-99.885,157.74-99.885c22.58,0,44.161,4.29,63.97,12.109
	c5.768,9.631,10.724,19.796,14.76,30.413C418.744,132.203,415.267,141.248,407.674,145.165z"/>
<path style="fill:#F95428;" d="M329.37,238.278c40.719,0,79.36-8.873,114.111-24.781c12.643-5.787,17.944-20.963,11.746-33.409
	c-23.016-46.211-70.725-77.962-125.857-77.962c-55.133,0-102.842,31.751-125.857,77.962c-6.199,12.446-0.898,27.622,11.746,33.409
	C250.01,229.405,288.651,238.278,329.37,238.278z"/>
<path style="fill:#E54728;" d="M231.044,210.246c20.734-58.178,61.512-99.937,109.7-107.649c-3.753-0.301-7.544-0.469-11.374-0.469
	c-55.131,0-102.841,31.751-125.857,77.962c-6.199,12.446-0.898,27.621,11.746,33.409c4.476,2.049,9.019,3.975,13.619,5.787
	C229.288,216.218,229.999,213.177,231.044,210.246z"/>
</svg>