<?xml version="1.0" encoding="iso-8859-1"?>
<!-- Uploaded to: SVG Repo, www.svgrepo.com, Generator: SVG Repo Mixer Tools -->
<svg height="800px" width="800px" version="1.1" id="Layer_1" xmlns="http://www.w3.org/2000/svg" xmlns:xlink="http://www.w3.org/1999/xlink" 
	 viewBox="0 0 512 512" xml:space="preserve">
<path style="fill:#F9DCB2;" d="M302.635,343.636v-80.849c23.108-6.909,34.802-16.587,34.802-16.587l-18.227-44.468l-11.038-26.958
	c-16.587,1.299-33.661,1.979-51.098,1.979c-5.294,0-10.564-0.061-15.786-0.194c-11.499-0.267-22.829-0.838-33.952-1.688
	l-11.73,26.921l-17.304,39.72c0,0,10.067,11.56,30.916,19.854v82.269c0,34.316-6.351,67.953-16.94,99.658
	c-1.53,4.578-2.344,9.423-2.344,14.414c0,29.981,29.532,54.292,65.985,54.292s65.998-24.31,65.998-54.292
	c0-4.991-0.814-9.836-2.344-14.414C308.986,411.589,302.635,377.953,302.635,343.636z"/>
<g>
	<path style="fill:#DDBB8E;" d="M257.075,204.683c17.437,0,34.511-0.68,51.098-1.979c3.704-0.291,7.383-0.607,11.038-0.971
		l-11.038-26.958c-16.587,1.299-32.301-16.402-49.738-16.402c-5.294,0-12.183,0.538-17.405,0.404
		c-11.499-0.267-22.57,16.943-33.693,16.093l-29.034,66.641c0,0,10.067,11.56,30.916,19.854v20.643v61.626
		c0,34.316-6.351,67.953-16.94,99.658c-1.53,4.578-2.344,9.423-2.344,14.414c0,29.981,29.532,54.292,65.985,54.292
		c0,0,0.001,0,0.002,0c-18.099-0.001-32.761-24.312-32.761-54.292c0-4.991,0.404-9.836,1.163-14.414
		c5.258-31.706,8.41-65.342,8.41-99.658v-55.137c7.309,1.222,15.367,1.897,24.205,1.744c18.336-0.328,33.588-3.194,45.694-6.812
		v-20.643c-12.107,3.619-27.358,6.484-45.694,6.812c-8.846,0.153-16.913-0.521-24.227-1.744c-1.077-0.18-2.137-0.373-3.181-0.577
		c-0.12-0.023-0.238-0.049-0.358-0.072c-0.198-0.039-0.39-0.083-0.587-0.123l8.8-62.723
		C243.901,204.556,250.453,204.683,257.075,204.683z"/>
	<path style="fill:#DDBB8E;" d="M255.927,269.605c-0.482,0.005-0.961,0.006-1.438,0.006
		C254.963,269.621,255.444,269.615,255.927,269.605z"/>
</g>
<path style="fill:#F95428;" d="M308.173,174.775c-16.587,1.299-33.661,1.979-51.098,1.979c-16.952,0-33.563-0.644-49.738-1.882
	c-43.084-3.279-82.986-10.771-117.508-21.469c-1.53-7.116-2.331-14.426-2.331-21.882C87.497,58.882,162.942,0,256.006,0
	s168.497,58.882,168.497,131.521c0,7.699-0.85,15.252-2.477,22.598C388.39,164.332,349.787,171.509,308.173,174.775z"/>
<path style="fill:#E54728;" d="M153.069,144.651c0-70.499,58.754-129.205,136.516-142.035C278.734,0.902,267.506,0,256.006,0
	C162.942,0,87.497,58.882,87.497,131.521c0,7.456,0.801,14.766,2.331,21.882c20.162,6.248,42.169,11.393,65.562,15.252
	C153.867,160.848,153.069,152.829,153.069,144.651z"/>
<g>
	<circle style="fill:#FFFFFF;" cx="232.71" cy="59.61" r="20.643"/>
	<circle style="fill:#FFFFFF;" cx="318.925" cy="110.611" r="20.643"/>
	<circle style="fill:#FFFFFF;" cx="152.796" cy="97.254" r="9.107"/>
	<circle style="fill:#FFFFFF;" cx="235.357" cy="131.254" r="9.107"/>
	<circle style="fill:#FFFFFF;" cx="334.93" cy="53.539" r="9.107"/>
</g>
</svg>