<svg width="325" height="298" viewBox="0 0 325 298" fill="none" xmlns="http://www.w3.org/2000/svg">
<mask id="path-1-outside-1_773_2074" maskUnits="userSpaceOnUse" x="0" y="0" width="325" height="298" fill="black">
<rect fill="white" width="325" height="298"/>
<path d="M10.9314 1C16.1474 1 20.3759 5.47715 20.3759 11H23.9055L23.9185 10.4854C24.1714 5.20177 28.2971 1.00013 33.35 1H34.3249C39.5409 1 43.7693 5.47715 43.7693 11H47.299C47.299 5.47715 51.5274 1 56.7434 1H57.7183C62.9342 1.00014 67.1628 5.47724 67.1628 11H70.6924C70.6924 5.47715 74.9209 1 80.1369 1H81.1108C86.3269 1 90.5553 5.47715 90.5553 11H94.085L94.0979 10.4854C94.3508 5.20179 98.4765 1.00017 103.529 1H104.504C109.72 1 113.949 5.47715 113.949 11H117.478L117.49 10.4854C117.743 5.20168 121.87 1.00002 126.923 1H127.898C133.114 1.00008 137.342 5.4772 137.342 11H140.872C140.872 5.47715 145.1 1 150.316 1H151.291C156.507 1.00023 160.736 5.47729 160.736 11H164.264L164.277 10.4854C164.53 5.20182 168.656 1.00022 173.709 1H174.684C179.9 1 184.128 5.47715 184.128 11H187.658L187.67 10.4854C187.923 5.20171 192.049 1.00007 197.102 1H198.077C203.293 1.00002 207.522 5.47717 207.522 11H211.051C211.051 5.47715 215.28 1 220.496 1H221.471C226.686 1.00019 230.915 5.47727 230.915 11H234.445C234.445 5.47715 238.673 1 243.889 1H244.863C250.079 1 254.308 5.47715 254.308 11H257.837L257.85 10.4854C258.103 5.20175 262.229 1.00011 267.282 1H268.257C273.473 1 277.701 5.47715 277.701 11H281.231C281.231 5.47715 285.459 1 290.675 1H291.65C296.866 1.00015 301.094 5.47724 301.094 11H304.624C304.624 5.47715 308.853 1 314.069 1H314.556C319.772 1 324 5.47715 324 11V11.4795C324 17.0022 319.771 21.4795 314.556 21.4795V23.5205C319.771 23.5205 324 27.9978 324 33.5205V34.4795C324 40.0022 319.771 44.4795 314.556 44.4795V46.5205C319.771 46.5205 324 50.9978 324 56.5205V57.4795C324 63.0022 319.771 67.4795 314.556 67.4795V69.5205C319.771 69.5205 324 73.9978 324 79.5205V80.4795C324 86.0022 319.771 90.4795 314.556 90.4795V92.5205C319.771 92.5205 324 96.9978 324 102.521V103.479C324 109.002 319.771 113.479 314.556 113.479V115.521C319.771 115.521 324 119.998 324 125.521V126.479C324 132.002 319.771 136.479 314.556 136.479V138.521C319.771 138.521 324 142.998 324 148.521V149.479C324 155.002 319.771 159.479 314.556 159.479V161.521C319.771 161.521 324 165.998 324 171.521V172.479C324 178.002 319.771 182.479 314.556 182.479V184.521C319.771 184.521 324 188.998 324 194.521V195.479C324 201.002 319.771 205.479 314.556 205.479V207.521C319.771 207.521 324 211.998 324 217.521V218.479C324 224.002 319.771 228.479 314.556 228.479V230.521C319.771 230.521 324 234.998 324 240.521V241.479C324 247.002 319.771 251.479 314.556 251.479V253.521C319.771 253.521 324 257.998 324 263.521V264.479C324 270.002 319.771 274.479 314.556 274.479V276.521C319.771 276.521 324 280.998 324 286.521V287C324 292.523 319.772 297 314.556 297H314.069C308.853 297 304.624 292.523 304.624 287H301.094C301.094 292.523 296.866 297 291.65 297H290.675C285.459 297 281.231 292.523 281.231 287H277.701L277.689 287.515C277.436 292.798 273.31 297 268.257 297H267.282C262.066 297 257.837 292.523 257.837 287H254.308L254.296 287.515C254.043 292.798 249.916 297 244.863 297H243.889C238.673 297 234.445 292.523 234.445 287H230.915C230.915 292.523 226.686 297 221.471 297H220.496C215.28 297 211.051 292.523 211.051 287H207.522C207.522 292.523 203.293 297 198.077 297H197.102C191.886 297 187.658 292.523 187.658 287H184.128L184.116 287.515C183.863 292.798 179.737 297 174.684 297H173.709C168.493 297 164.264 292.523 164.264 287H160.736C160.736 292.523 156.507 297 151.291 297H150.316C145.1 297 140.872 292.523 140.872 287H137.342C137.342 292.523 133.114 297 127.898 297H126.923C121.707 297 117.478 292.523 117.478 287H113.949L113.937 287.515C113.684 292.798 109.557 297 104.504 297H103.529C98.3135 297 94.085 292.523 94.085 287H90.5553L90.5433 287.515C90.2903 292.798 86.1638 297 81.1108 297H80.1369C74.9209 297 70.6924 292.523 70.6924 287H67.1628C67.1628 292.523 62.9342 297 57.7183 297H56.7434C51.5274 297 47.299 292.523 47.299 287H43.7693L43.7573 287.515C43.5044 292.798 39.3779 297 34.3249 297H33.35C28.1341 297 23.9055 292.523 23.9055 287H20.3759L20.3639 287.515C20.1109 292.798 15.9844 297 10.9314 297H10.4444C5.22842 297 1 292.523 1 287V286.521C1.00016 280.998 5.22852 276.521 10.4444 276.521V274.479C5.22853 274.479 1.00017 270.002 1 264.479V263.521C1.00016 257.998 5.22852 253.521 10.4444 253.521V251.479C5.22853 251.479 1.00017 247.002 1 241.479V240.521C1.00016 234.998 5.22852 230.521 10.4444 230.521V228.479C5.22853 228.479 1.00018 224.002 1 218.479V217.521C1.00017 211.998 5.22852 207.521 10.4444 207.521V205.479C5.22853 205.479 1.00017 201.002 1 195.479V194.521C1.00016 188.998 5.22852 184.521 10.4444 184.521V182.479C5.22853 182.479 1.00017 178.002 1 172.479V171.521C1.00016 165.998 5.22852 161.521 10.4444 161.521V159.479C5.22853 159.479 1.00018 155.002 1 149.479V148.521C1.00016 142.998 5.22852 138.521 10.4444 138.521V136.479C5.22853 136.479 1.00017 132.002 1 126.479V125.521C1.00016 119.998 5.22852 115.521 10.4444 115.521V113.479C5.22852 113.479 1.00017 109.002 1 103.479V102.521C1.00016 96.9978 5.22852 92.5205 10.4444 92.5205V90.4795C5.22852 90.4795 1.00017 86.0022 1 80.4795V79.5205C1.00016 73.9978 5.22852 69.5205 10.4444 69.5205V67.4795C5.22853 67.4795 1.00017 63.0022 1 57.4795V56.5205C1.00017 50.9978 5.22852 46.5205 10.4444 46.5205V44.4795C5.22852 44.4795 1.00017 40.0022 1 34.4795V33.5205C1.00017 27.9978 5.22852 23.5205 10.4444 23.5205V21.4795C5.22852 21.4795 1.00017 17.0022 1 11.4795V11C1 5.47715 5.22842 1 10.4444 1H10.9314Z"/>
</mask>
<path d="M10.9314 1C16.1474 1 20.3759 5.47715 20.3759 11H23.9055L23.9185 10.4854C24.1714 5.20177 28.2971 1.00013 33.35 1H34.3249C39.5409 1 43.7693 5.47715 43.7693 11H47.299C47.299 5.47715 51.5274 1 56.7434 1H57.7183C62.9342 1.00014 67.1628 5.47724 67.1628 11H70.6924C70.6924 5.47715 74.9209 1 80.1369 1H81.1108C86.3269 1 90.5553 5.47715 90.5553 11H94.085L94.0979 10.4854C94.3508 5.20179 98.4765 1.00017 103.529 1H104.504C109.72 1 113.949 5.47715 113.949 11H117.478L117.49 10.4854C117.743 5.20168 121.87 1.00002 126.923 1H127.898C133.114 1.00008 137.342 5.4772 137.342 11H140.872C140.872 5.47715 145.1 1 150.316 1H151.291C156.507 1.00023 160.736 5.47729 160.736 11H164.264L164.277 10.4854C164.53 5.20182 168.656 1.00022 173.709 1H174.684C179.9 1 184.128 5.47715 184.128 11H187.658L187.67 10.4854C187.923 5.20171 192.049 1.00007 197.102 1H198.077C203.293 1.00002 207.522 5.47717 207.522 11H211.051C211.051 5.47715 215.28 1 220.496 1H221.471C226.686 1.00019 230.915 5.47727 230.915 11H234.445C234.445 5.47715 238.673 1 243.889 1H244.863C250.079 1 254.308 5.47715 254.308 11H257.837L257.85 10.4854C258.103 5.20175 262.229 1.00011 267.282 1H268.257C273.473 1 277.701 5.47715 277.701 11H281.231C281.231 5.47715 285.459 1 290.675 1H291.65C296.866 1.00015 301.094 5.47724 301.094 11H304.624C304.624 5.47715 308.853 1 314.069 1H314.556C319.772 1 324 5.47715 324 11V11.4795C324 17.0022 319.771 21.4795 314.556 21.4795V23.5205C319.771 23.5205 324 27.9978 324 33.5205V34.4795C324 40.0022 319.771 44.4795 314.556 44.4795V46.5205C319.771 46.5205 324 50.9978 324 56.5205V57.4795C324 63.0022 319.771 67.4795 314.556 67.4795V69.5205C319.771 69.5205 324 73.9978 324 79.5205V80.4795C324 86.0022 319.771 90.4795 314.556 90.4795V92.5205C319.771 92.5205 324 96.9978 324 102.521V103.479C324 109.002 319.771 113.479 314.556 113.479V115.521C319.771 115.521 324 119.998 324 125.521V126.479C324 132.002 319.771 136.479 314.556 136.479V138.521C319.771 138.521 324 142.998 324 148.521V149.479C324 155.002 319.771 159.479 314.556 159.479V161.521C319.771 161.521 324 165.998 324 171.521V172.479C324 178.002 319.771 182.479 314.556 182.479V184.521C319.771 184.521 324 188.998 324 194.521V195.479C324 201.002 319.771 205.479 314.556 205.479V207.521C319.771 207.521 324 211.998 324 217.521V218.479C324 224.002 319.771 228.479 314.556 228.479V230.521C319.771 230.521 324 234.998 324 240.521V241.479C324 247.002 319.771 251.479 314.556 251.479V253.521C319.771 253.521 324 257.998 324 263.521V264.479C324 270.002 319.771 274.479 314.556 274.479V276.521C319.771 276.521 324 280.998 324 286.521V287C324 292.523 319.772 297 314.556 297H314.069C308.853 297 304.624 292.523 304.624 287H301.094C301.094 292.523 296.866 297 291.65 297H290.675C285.459 297 281.231 292.523 281.231 287H277.701L277.689 287.515C277.436 292.798 273.31 297 268.257 297H267.282C262.066 297 257.837 292.523 257.837 287H254.308L254.296 287.515C254.043 292.798 249.916 297 244.863 297H243.889C238.673 297 234.445 292.523 234.445 287H230.915C230.915 292.523 226.686 297 221.471 297H220.496C215.28 297 211.051 292.523 211.051 287H207.522C207.522 292.523 203.293 297 198.077 297H197.102C191.886 297 187.658 292.523 187.658 287H184.128L184.116 287.515C183.863 292.798 179.737 297 174.684 297H173.709C168.493 297 164.264 292.523 164.264 287H160.736C160.736 292.523 156.507 297 151.291 297H150.316C145.1 297 140.872 292.523 140.872 287H137.342C137.342 292.523 133.114 297 127.898 297H126.923C121.707 297 117.478 292.523 117.478 287H113.949L113.937 287.515C113.684 292.798 109.557 297 104.504 297H103.529C98.3135 297 94.085 292.523 94.085 287H90.5553L90.5433 287.515C90.2903 292.798 86.1638 297 81.1108 297H80.1369C74.9209 297 70.6924 292.523 70.6924 287H67.1628C67.1628 292.523 62.9342 297 57.7183 297H56.7434C51.5274 297 47.299 292.523 47.299 287H43.7693L43.7573 287.515C43.5044 292.798 39.3779 297 34.3249 297H33.35C28.1341 297 23.9055 292.523 23.9055 287H20.3759L20.3639 287.515C20.1109 292.798 15.9844 297 10.9314 297H10.4444C5.22842 297 1 292.523 1 287V286.521C1.00016 280.998 5.22852 276.521 10.4444 276.521V274.479C5.22853 274.479 1.00017 270.002 1 264.479V263.521C1.00016 257.998 5.22852 253.521 10.4444 253.521V251.479C5.22853 251.479 1.00017 247.002 1 241.479V240.521C1.00016 234.998 5.22852 230.521 10.4444 230.521V228.479C5.22853 228.479 1.00018 224.002 1 218.479V217.521C1.00017 211.998 5.22852 207.521 10.4444 207.521V205.479C5.22853 205.479 1.00017 201.002 1 195.479V194.521C1.00016 188.998 5.22852 184.521 10.4444 184.521V182.479C5.22853 182.479 1.00017 178.002 1 172.479V171.521C1.00016 165.998 5.22852 161.521 10.4444 161.521V159.479C5.22853 159.479 1.00018 155.002 1 149.479V148.521C1.00016 142.998 5.22852 138.521 10.4444 138.521V136.479C5.22853 136.479 1.00017 132.002 1 126.479V125.521C1.00016 119.998 5.22852 115.521 10.4444 115.521V113.479C5.22852 113.479 1.00017 109.002 1 103.479V102.521C1.00016 96.9978 5.22852 92.5205 10.4444 92.5205V90.4795C5.22852 90.4795 1.00017 86.0022 1 80.4795V79.5205C1.00016 73.9978 5.22852 69.5205 10.4444 69.5205V67.4795C5.22853 67.4795 1.00017 63.0022 1 57.4795V56.5205C1.00017 50.9978 5.22852 46.5205 10.4444 46.5205V44.4795C5.22852 44.4795 1.00017 40.0022 1 34.4795V33.5205C1.00017 27.9978 5.22852 23.5205 10.4444 23.5205V21.4795C5.22852 21.4795 1.00017 17.0022 1 11.4795V11C1 5.47715 5.22842 1 10.4444 1H10.9314Z" fill="white"/>
<path d="M10.9314 1C16.1474 1 20.3759 5.47715 20.3759 11H23.9055L23.9185 10.4854C24.1714 5.20177 28.2971 1.00013 33.35 1H34.3249C39.5409 1 43.7693 5.47715 43.7693 11H47.299C47.299 5.47715 51.5274 1 56.7434 1H57.7183C62.9342 1.00014 67.1628 5.47724 67.1628 11H70.6924C70.6924 5.47715 74.9209 1 80.1369 1H81.1108C86.3269 1 90.5553 5.47715 90.5553 11H94.085L94.0979 10.4854C94.3508 5.20179 98.4765 1.00017 103.529 1H104.504C109.72 1 113.949 5.47715 113.949 11H117.478L117.49 10.4854C117.743 5.20168 121.87 1.00002 126.923 1H127.898C133.114 1.00008 137.342 5.4772 137.342 11H140.872C140.872 5.47715 145.1 1 150.316 1H151.291C156.507 1.00023 160.736 5.47729 160.736 11H164.264L164.277 10.4854C164.53 5.20182 168.656 1.00022 173.709 1H174.684C179.9 1 184.128 5.47715 184.128 11H187.658L187.67 10.4854C187.923 5.20171 192.049 1.00007 197.102 1H198.077C203.293 1.00002 207.522 5.47717 207.522 11H211.051C211.051 5.47715 215.28 1 220.496 1H221.471C226.686 1.00019 230.915 5.47727 230.915 11H234.445C234.445 5.47715 238.673 1 243.889 1H244.863C250.079 1 254.308 5.47715 254.308 11H257.837L257.85 10.4854C258.103 5.20175 262.229 1.00011 267.282 1H268.257C273.473 1 277.701 5.47715 277.701 11H281.231C281.231 5.47715 285.459 1 290.675 1H291.65C296.866 1.00015 301.094 5.47724 301.094 11H304.624C304.624 5.47715 308.853 1 314.069 1H314.556C319.772 1 324 5.47715 324 11V11.4795C324 17.0022 319.771 21.4795 314.556 21.4795V23.5205C319.771 23.5205 324 27.9978 324 33.5205V34.4795C324 40.0022 319.771 44.4795 314.556 44.4795V46.5205C319.771 46.5205 324 50.9978 324 56.5205V57.4795C324 63.0022 319.771 67.4795 314.556 67.4795V69.5205C319.771 69.5205 324 73.9978 324 79.5205V80.4795C324 86.0022 319.771 90.4795 314.556 90.4795V92.5205C319.771 92.5205 324 96.9978 324 102.521V103.479C324 109.002 319.771 113.479 314.556 113.479V115.521C319.771 115.521 324 119.998 324 125.521V126.479C324 132.002 319.771 136.479 314.556 136.479V138.521C319.771 138.521 324 142.998 324 148.521V149.479C324 155.002 319.771 159.479 314.556 159.479V161.521C319.771 161.521 324 165.998 324 171.521V172.479C324 178.002 319.771 182.479 314.556 182.479V184.521C319.771 184.521 324 188.998 324 194.521V195.479C324 201.002 319.771 205.479 314.556 205.479V207.521C319.771 207.521 324 211.998 324 217.521V218.479C324 224.002 319.771 228.479 314.556 228.479V230.521C319.771 230.521 324 234.998 324 240.521V241.479C324 247.002 319.771 251.479 314.556 251.479V253.521C319.771 253.521 324 257.998 324 263.521V264.479C324 270.002 319.771 274.479 314.556 274.479V276.521C319.771 276.521 324 280.998 324 286.521V287C324 292.523 319.772 297 314.556 297H314.069C308.853 297 304.624 292.523 304.624 287H301.094C301.094 292.523 296.866 297 291.65 297H290.675C285.459 297 281.231 292.523 281.231 287H277.701L277.689 287.515C277.436 292.798 273.31 297 268.257 297H267.282C262.066 297 257.837 292.523 257.837 287H254.308L254.296 287.515C254.043 292.798 249.916 297 244.863 297H243.889C238.673 297 234.445 292.523 234.445 287H230.915C230.915 292.523 226.686 297 221.471 297H220.496C215.28 297 211.051 292.523 211.051 287H207.522C207.522 292.523 203.293 297 198.077 297H197.102C191.886 297 187.658 292.523 187.658 287H184.128L184.116 287.515C183.863 292.798 179.737 297 174.684 297H173.709C168.493 297 164.264 292.523 164.264 287H160.736C160.736 292.523 156.507 297 151.291 297H150.316C145.1 297 140.872 292.523 140.872 287H137.342C137.342 292.523 133.114 297 127.898 297H126.923C121.707 297 117.478 292.523 117.478 287H113.949L113.937 287.515C113.684 292.798 109.557 297 104.504 297H103.529C98.3135 297 94.085 292.523 94.085 287H90.5553L90.5433 287.515C90.2903 292.798 86.1638 297 81.1108 297H80.1369C74.9209 297 70.6924 292.523 70.6924 287H67.1628C67.1628 292.523 62.9342 297 57.7183 297H56.7434C51.5274 297 47.299 292.523 47.299 287H43.7693L43.7573 287.515C43.5044 292.798 39.3779 297 34.3249 297H33.35C28.1341 297 23.9055 292.523 23.9055 287H20.3759L20.3639 287.515C20.1109 292.798 15.9844 297 10.9314 297H10.4444C5.22842 297 1 292.523 1 287V286.521C1.00016 280.998 5.22852 276.521 10.4444 276.521V274.479C5.22853 274.479 1.00017 270.002 1 264.479V263.521C1.00016 257.998 5.22852 253.521 10.4444 253.521V251.479C5.22853 251.479 1.00017 247.002 1 241.479V240.521C1.00016 234.998 5.22852 230.521 10.4444 230.521V228.479C5.22853 228.479 1.00018 224.002 1 218.479V217.521C1.00017 211.998 5.22852 207.521 10.4444 207.521V205.479C5.22853 205.479 1.00017 201.002 1 195.479V194.521C1.00016 188.998 5.22852 184.521 10.4444 184.521V182.479C5.22853 182.479 1.00017 178.002 1 172.479V171.521C1.00016 165.998 5.22852 161.521 10.4444 161.521V159.479C5.22853 159.479 1.00018 155.002 1 149.479V148.521C1.00016 142.998 5.22852 138.521 10.4444 138.521V136.479C5.22853 136.479 1.00017 132.002 1 126.479V125.521C1.00016 119.998 5.22852 115.521 10.4444 115.521V113.479C5.22852 113.479 1.00017 109.002 1 103.479V102.521C1.00016 96.9978 5.22852 92.5205 10.4444 92.5205V90.4795C5.22852 90.4795 1.00017 86.0022 1 80.4795V79.5205C1.00016 73.9978 5.22852 69.5205 10.4444 69.5205V67.4795C5.22853 67.4795 1.00017 63.0022 1 57.4795V56.5205C1.00017 50.9978 5.22852 46.5205 10.4444 46.5205V44.4795C5.22852 44.4795 1.00017 40.0022 1 34.4795V33.5205C1.00017 27.9978 5.22852 23.5205 10.4444 23.5205V21.4795C5.22852 21.4795 1.00017 17.0022 1 11.4795V11C1 5.47715 5.22842 1 10.4444 1H10.9314Z" stroke="#B28F8F" stroke-width="2" stroke-linecap="round" stroke-linejoin="round" mask="url(#path-1-outside-1_773_2074)"/>
</svg>
